<?xml version="1.0" encoding="UTF-8"?>
<svg id="Layer_1" xmlns="http://www.w3.org/2000/svg" viewBox="0 0 473.74 477.35">
  <path d="M379.23,477.35c-6.06-4.07-11.72-6.7-15.83-10.86-12.32-12.44-24.24-25.29-35.95-38.31-47.94-53.32-122.41-55.82-173.78-5.59-15.24,14.9-30.08,30.19-45.27,45.14-11.67,11.48-15.92,11.62-27.09.54-24.88-24.68-49.37-49.76-74.42-74.26-9.8-9.58-8.7-17.38.57-26.4,17.64-17.17,35.4-34.29,52-52.45,28.27-30.94,38.84-67.42,25.83-107.74-5.18-16.06-15.13-31.42-25.94-44.62-16.15-19.72-34.77-37.45-52.75-55.62-8.37-8.46-8.77-15.71-.16-24.19C32.39,57.41,58.16,31.6,83.84,5.72c8.21-8.28,16.01-6.98,23.47.37,13.82,13.63,27.41,27.5,40.98,41.38,55.46,56.77,124.65,56.73,179.53-.19,12.82-13.29,25.71-26.52,38.39-39.95,8.86-9.38,16.73-10.13,26.28-.16,23.58,24.63,47.94,48.49,71.79,72.86,12.47,12.74,12.44,16.63.14,29.45-14.42,15.03-29.22,29.71-43.71,44.68-47.6,49.19-47.71,118.83-.01,168.18,14.47,14.97,30.07,28.86,44.56,43.81,11.44,11.8,11.23,18.63-.18,30.32-23.16,23.71-46.49,47.27-70.07,70.56-4.12,4.07-9.86,6.51-15.78,10.3Z"/>
</svg>